<svg width="18" height="16" viewBox="0 0 18 16" fill="none" xmlns="http://www.w3.org/2000/svg">
<g id="eye-off" clip-path="url(#clip0_1348_133598)">
<path id="Icon" d="M7.44896 2.82675C7.93043 2.71933 8.42337 2.66564 8.91786 2.66675C13.8142 2.66675 16.6121 8.00008 16.6121 8.00008C16.1875 8.75715 15.6811 9.4699 15.1012 10.1267M10.4007 9.41341C10.2086 9.60991 9.97697 9.76752 9.71956 9.87683C9.46216 9.98614 9.18429 10.0449 8.90253 10.0497C8.62078 10.0544 8.34091 10.005 8.07961 9.90441C7.81832 9.80382 7.58097 9.6541 7.3817 9.46418C7.18244 9.27427 7.02535 9.04804 6.91981 8.79901C6.81427 8.54997 6.76244 8.28323 6.76742 8.01469C6.77239 7.74615 6.83406 7.48131 6.94875 7.23598C7.06344 6.99065 7.2288 6.76985 7.43497 6.58675M1.22363 0.666748L16.6121 15.3334M13.0727 11.9601C11.8771 12.8287 10.4211 13.31 8.91786 13.3334C4.02153 13.3334 1.22363 8.00008 1.22363 8.00008C2.0937 6.45468 3.30047 5.10449 4.76298 4.04008L13.0727 11.9601Z" stroke="#98A2B3" stroke-width="1.33" stroke-linecap="round" stroke-linejoin="round"/>
</g>
<defs>
<clipPath id="clip0_1348_133598">
<rect width="16.7874" height="16" fill="white" transform="translate(0.523926)"/>
</clipPath>
</defs>
</svg>
