<svg width="138" height="34" viewBox="0 0 138 34" fill="none" xmlns="http://www.w3.org/2000/svg">
<g id="Frame" clip-path="url(#clip0_640_1587)">
<g id="Group">
<g id="Layer 1">
<g id="Group_2">
<g id="Group_3">
<path id="Vector" d="M18.1773 13.5304L15.9593 9.76669C15.067 8.25488 16.1856 6.3572 17.9704 6.3572H37.0593L39.4195 2.35311C40.0403 1.30306 39.2643 -0.0063324 38.0228 -0.0063324H1.61032C0.375234 -6.81588e-06 -0.400737 1.30939 0.22004 2.35944L6.81579 13.5304H18.1838H18.1773Z" fill="url(#paint0_linear_640_1587)"/>
<path id="Vector_2" d="M20.014 13.5304L22.232 17.2941C23.1243 18.8059 22.0056 20.7036 20.2209 20.7036H11.0386L18.4232 33.2093C19.044 34.2593 20.5895 34.2593 21.2103 33.2093L32.824 13.5304H20.0075H20.014Z" fill="url(#paint1_linear_640_1587)"/>
</g>
<path id="Vector_3" style="mix-blend-mode:multiply" d="M20.014 13.5304L22.232 17.2941C23.1243 18.8059 22.0056 20.7036 20.2209 20.7036H11.0386L18.4232 33.2093C19.044 34.2593 20.5895 34.2593 21.2103 33.2093L32.824 13.5304H20.0075H20.014Z" fill="url(#paint2_linear_640_1587)"/>
<path id="Vector_4" style="mix-blend-mode:multiply" d="M18.1774 13.5304L15.9594 9.7667C15.5261 9.0266 15.5714 8.20428 15.9335 7.54642L12.4028 13.5241H18.1774V13.5304Z" fill="url(#paint3_linear_640_1587)"/>
<g id="Group_4">
<path id="Vector_5" d="M51.5247 19.0716C50.6517 18.7174 49.5201 18.3505 48.1557 17.9899C47.0758 17.699 46.2158 17.4333 45.6079 17.1929C45.0195 16.9652 44.5216 16.6552 44.1336 16.2757C43.7585 15.9088 43.5775 15.4534 43.5775 14.8841C43.5775 14.163 43.8814 13.6 44.5151 13.1509C45.1553 12.6954 46.0347 12.4677 47.1275 12.4677C48.3109 12.4677 49.2615 12.7524 49.9598 13.3153C50.6582 13.8783 51.0333 14.6058 51.0979 15.5419L51.1109 15.7127H54.6544L54.6415 15.523C54.5445 13.6569 53.8203 12.1704 52.4817 11.0951C51.1497 10.026 49.3843 9.48204 47.2375 9.48204C45.8472 9.48204 44.5927 9.72241 43.4999 10.1968C42.407 10.6776 41.547 11.3354 40.9456 12.1514C40.3443 12.9738 40.0403 13.891 40.0403 14.8841C40.0403 16.1302 40.3766 17.1486 41.0426 17.9204C41.6957 18.6794 42.4976 19.2551 43.4158 19.6409C44.3276 20.0205 45.5045 20.4 46.9141 20.7606C48.4532 21.1401 49.5977 21.5323 50.3219 21.9181C51.0074 22.285 51.3436 22.829 51.3436 23.5881C51.3436 24.3472 51.0268 24.9354 50.3672 25.4225C49.7076 25.9159 48.7829 26.1689 47.619 26.1689C46.3645 26.1689 45.3363 25.8843 44.5733 25.315C43.8103 24.752 43.3899 24.0435 43.3059 23.1516L43.2929 22.9872H39.6523L39.6653 23.1769C39.7364 24.3472 40.1244 25.3972 40.8163 26.2954C41.5082 27.1937 42.4588 27.9021 43.6486 28.4019C44.8255 28.8953 46.177 29.1483 47.6642 29.1483C49.061 29.1483 50.309 28.9079 51.3889 28.4335C52.4753 27.9527 53.3288 27.2886 53.9237 26.4473C54.5251 25.5996 54.829 24.6381 54.829 23.5754C54.8032 22.3989 54.4669 21.4311 53.8267 20.6973C53.1995 19.9762 52.43 19.4259 51.5441 19.059L51.5247 19.0716Z" fill="#0A062D"/>
<path id="Vector_6" d="M60.7394 5.08576H57.1958V23.5628C57.1958 25.4288 57.6614 26.7952 58.5796 27.6175C59.4914 28.4398 60.8752 28.8573 62.6793 28.8573H65.725V25.8653H63.2031C62.2784 25.8653 61.6318 25.6945 61.2761 25.3529C60.9205 25.0177 60.7394 24.4104 60.7394 23.5565V12.7144H65.725V9.792H60.7394V5.07944V5.08576Z" fill="#0A062D"/>
<path id="Vector_7" d="M81.6842 10.6713C80.2681 9.88688 78.6191 9.48837 76.7762 9.48837C74.9333 9.48837 73.2003 9.89321 71.7453 10.6902C70.2904 11.4936 69.1458 12.6448 68.344 14.125C67.5422 15.5989 67.1348 17.3384 67.1348 19.293C67.1348 21.2476 67.5551 22.9935 68.3763 24.48C69.204 25.9728 70.3615 27.1367 71.8165 27.9464C73.2714 28.7561 74.9397 29.1609 76.7762 29.1609C79.0847 29.1609 81.0505 28.579 82.6089 27.434C84.1738 26.2891 85.2278 24.7836 85.7451 22.9555L85.8098 22.7278H82.0205L81.9752 22.848C81.6131 23.8538 80.9858 24.6698 80.1064 25.2707C79.2205 25.8716 78.1018 26.1753 76.7762 26.1753C75.1531 26.1753 73.7564 25.6692 72.6248 24.6698C71.5319 23.7083 70.9047 22.3609 70.7624 20.6657H86.0103L86.0297 20.5012C86.1008 19.837 86.1396 19.1981 86.1396 18.6035C86.1396 16.8767 85.7516 15.3016 84.9821 13.9226C84.2126 12.55 83.1068 11.4493 81.6842 10.6586V10.6713ZM70.8077 17.7812C70.9952 16.1555 71.616 14.8588 72.6636 13.9289C73.7499 12.9611 75.0885 12.474 76.6404 12.474C77.7268 12.474 78.7226 12.6891 79.615 13.1193C80.4944 13.5431 81.2057 14.1756 81.7166 14.998C82.2015 15.776 82.4667 16.7059 82.4925 17.7749H70.8142L70.8077 17.7812Z" fill="#0A062D"/>
<path id="Vector_8" d="M92.632 3.23869H89.0884V28.8573H92.632V3.23869Z" fill="#0A062D"/>
<path id="Vector_9" d="M100.34 3.23869H96.7964V28.8573H100.34V3.23869Z" fill="#0A062D"/>
<path id="Vector_10" d="M113.221 9.45041C107.666 9.45041 103.146 13.872 103.146 19.3057C103.146 24.7393 107.666 29.1609 113.221 29.1609H117.12V25.6882H113.221C109.625 25.6882 106.696 22.8227 106.696 19.3057C106.696 15.7886 109.625 12.9232 113.221 12.9232C116.816 12.9232 119.745 15.7886 119.745 19.3057V29.1609H123.295V19.3057C123.295 13.872 118.775 9.45041 113.221 9.45041Z" fill="#8B3DF1"/>
<path id="Vector_11" d="M133.972 9.79199C130.247 9.79199 127.221 12.7524 127.221 16.3959V28.8573H130.764L130.784 15.7886C130.784 14.2452 132.071 12.9864 133.655 12.9864H138.007V9.79199H133.972Z" fill="#0A062D"/>
</g>
</g>
</g>
</g>
</g>
<defs>
<linearGradient id="paint0_linear_640_1587" x1="35.9988" y1="-9.15945" x2="-9.5875" y2="25.5622" gradientUnits="userSpaceOnUse">
<stop stop-color="#CF63FF"/>
<stop offset="1" stop-color="#4D1AE5"/>
</linearGradient>
<linearGradient id="paint1_linear_640_1587" x1="46.4746" y1="4.59869" x2="0.894806" y2="39.3202" gradientUnits="userSpaceOnUse">
<stop stop-color="#CF63FF"/>
<stop offset="1" stop-color="#4D1AE5"/>
</linearGradient>
<linearGradient id="paint2_linear_640_1587" x1="16.2376" y1="26.7888" x2="29.3009" y2="5.75526" gradientUnits="userSpaceOnUse">
<stop offset="0.27" stop-color="#A463FF" stop-opacity="0.3"/>
<stop offset="1" stop-color="#541ADD"/>
</linearGradient>
<linearGradient id="paint3_linear_640_1587" x1="9.29895" y1="22.4811" x2="22.3686" y2="1.44736" gradientUnits="userSpaceOnUse">
<stop offset="0.27" stop-color="#A463FF" stop-opacity="0.3"/>
<stop offset="1" stop-color="#541ADD"/>
</linearGradient>
<clipPath id="clip0_640_1587">
<rect width="138" height="34" fill="white"/>
</clipPath>
</defs>
</svg>
